<svg width="1203" height="336" viewBox="0 0 1203 336" fill="none" xmlns="http://www.w3.org/2000/svg">
<path d="M1 34C1 25.7157 7.71573 19 16 19H1187C1195.28 19 1202 25.7157 1202 34V320C1202 328.284 1195.28 335 1187 335H16C7.71576 335 1 328.284 1 320V34Z" fill="white"/>
<path d="M16 18.5C7.43959 18.5 0.5 25.4396 0.5 34V320C0.5 328.56 7.43962 335.5 16 335.5H1187C1195.56 335.5 1202.5 328.56 1202.5 320V34C1202.5 25.4396 1195.56 18.5 1187 18.5H16Z" stroke="black" stroke-opacity="0.2"/>
<path d="M510 19H1V335H510C433.091 289.966 404 234.086 404 173.555C404 116.074 440.003 62.7878 510 19Z" fill="#C4FD8A"/>
<path d="M62.1447 27.5468H68V90.6213C68 99.0312 65.9262 106.24 61.7787 112.247C57.6312 118.082 52.5688 121 46.5915 121C40.6142 121 35.4908 118.082 31.2213 112.247C27.0738 106.24 25 99.0312 25 90.6213V22.1404C25 16.1333 26.5248 10.9844 29.5745 6.69362C32.7461 2.23121 36.4667 0 40.7362 0C45.0057 0 48.6652 2.23121 51.7149 6.69362C54.7645 10.9844 56.2894 16.1333 56.2894 22.1404V79.8085C56.2894 83.5844 55.3135 86.8454 53.3617 89.5915C51.5319 92.166 49.2752 93.4532 46.5915 93.4532C43.9078 93.4532 41.5901 92.166 39.6383 89.5915C37.6865 86.8454 36.7106 83.5844 36.7106 79.8085V27.5468H42.566V79.8085C42.566 81.3532 42.9319 82.6404 43.6638 83.6702C44.5177 84.7 45.4936 85.2149 46.5915 85.2149C47.6894 85.2149 48.6043 84.7 49.3362 83.6702C50.0681 82.6404 50.434 81.3532 50.434 79.8085V22.1404C50.434 18.3645 49.4582 15.1035 47.5064 12.3574C45.6766 9.61135 43.4199 8.2383 40.7362 8.2383C38.0525 8.2383 35.7348 9.61135 33.783 12.3574C31.8312 15.1035 30.8553 18.3645 30.8553 22.1404V90.6213C30.8553 96.6284 32.3801 101.863 35.4298 106.326C38.6014 110.616 42.322 112.762 46.5915 112.762C50.861 112.762 54.5206 110.616 57.5702 106.326C60.6199 101.863 62.1447 96.6284 62.1447 90.6213V27.5468Z" fill="#69716E"/>
</svg>
