<svg width="373" height="410" viewBox="0 0 373 410" fill="none" xmlns="http://www.w3.org/2000/svg">
<path d="M364.418 10.1614H0V410H372.756C316.433 353.018 283.085 282.312 283.085 205.722C283.085 132.991 313.157 65.5666 364.418 10.1614Z" fill="#C4FD8A"/>
<path d="M57.1447 30.6804H63V100.93C63 110.297 60.9262 118.325 56.7787 125.016C52.6312 131.515 47.5688 134.765 41.5915 134.765C35.6142 134.765 30.4908 131.515 26.2213 125.016C22.0738 118.325 20 110.297 20 100.93V24.659C20 17.9686 21.5248 12.2339 24.5745 7.45506C27.7461 2.48502 31.4667 0 35.7362 0C40.0057 0 43.6652 2.48502 46.7149 7.45506C49.7645 12.2339 51.2894 17.9686 51.2894 24.659V88.8873C51.2894 93.0927 50.3135 96.7246 48.3617 99.7831C46.5319 102.65 44.2752 104.084 41.5915 104.084C38.9078 104.084 36.5901 102.65 34.6383 99.7831C32.6865 96.7246 31.7106 93.0927 31.7106 88.8873V30.6804H37.566V88.8873C37.566 90.6077 37.9319 92.0413 38.6638 93.1882C39.5177 94.3352 40.4936 94.9086 41.5915 94.9086C42.6894 94.9086 43.6043 94.3352 44.3362 93.1882C45.0681 92.0413 45.434 90.6077 45.434 88.8873V24.659C45.434 20.4536 44.4582 16.8217 42.5064 13.7632C40.6766 10.7047 38.4199 9.17546 35.7362 9.17546C33.0525 9.17546 30.7348 10.7047 28.783 13.7632C26.8312 16.8217 25.8553 20.4536 25.8553 24.659V100.93C25.8553 107.62 27.3801 113.451 30.4298 118.421C33.6014 123.2 37.322 125.589 41.5915 125.589C45.861 125.589 49.5206 123.2 52.5702 118.421C55.6199 113.451 57.1447 107.62 57.1447 100.93V30.6804Z" fill="#69716E"/>
<g opacity="0.8">
<path d="M252.491 320.877L250.354 327.071C250.122 327.745 249.403 328.063 248.748 327.783C248.094 327.503 247.751 326.73 247.983 326.057L249.949 320.357C250.932 317.505 250.072 314.249 247.987 311.954C238.525 301.541 237.921 293.288 246.215 277.387C254.922 262.544 257.286 259.965 270.339 244.73C269.34 264.9 287.461 307.55 258.213 315.746C255.634 316.469 253.396 318.252 252.491 320.877Z" fill="#24644B"/>
<path d="M245.512 335.057C249.283 307.067 257.161 288.857 268.707 273.378" stroke="#AEEA00" stroke-width="4" stroke-linecap="round"/>
</g>
<path opacity="0.8" d="M265.024 382.973L269.241 390.06C269.725 390.873 269.5 391.988 268.739 392.55C267.978 393.112 266.968 392.908 266.485 392.095L262.6 385.568C260.616 382.233 256.905 380.746 253.241 381.466C236.077 384.841 227.739 379.353 218.835 357.482C211.275 335.988 210.604 331.248 205.955 304.322C224.42 320.747 278.781 331.555 264.394 372.362C263.147 375.899 263.19 379.892 265.024 382.973Z" fill="#24644B"/>
<path d="M269.094 382.554C240.861 363.337 225.242 343.588 214.421 320.324" stroke="#AEEA00" stroke-width="5" stroke-linecap="round"/>
<path opacity="0.8" d="M273.546 377.29L271.125 380.606C270.839 380.998 270.316 381.051 269.957 380.726C269.598 380.401 269.538 379.82 269.824 379.428L272.054 376.372C273.207 374.794 273.305 372.577 272.448 370.738C268.364 361.973 269.479 356.645 277.648 348.526C285.844 341.202 287.802 340.123 298.798 333.546C294.452 345.986 297.981 376.939 278.049 375.33C276.338 375.192 274.612 375.829 273.546 377.29Z" fill="#24644B"/>
<path d="M274.354 379.406C278.434 361.284 284.653 349.879 293.126 340.529" stroke="#AEEA00" stroke-width="3" stroke-linecap="round"/>
<path opacity="0.8" d="M234.269 387.631L236.466 388.301C236.772 388.395 236.958 388.722 236.881 389.033C236.805 389.344 236.495 389.52 236.189 389.426L234.159 388.807C233.042 388.466 231.884 388.902 231.218 389.835C227.71 394.759 224.697 395.43 218.418 392.247C212.594 388.873 211.547 387.898 205.402 382.554C212.899 382.187 227.949 372.099 232.103 385.332C232.438 386.4 233.225 387.312 234.269 387.631Z" fill="#47CB64"/>
<path d="M234.616 389.539C224.15 388.958 217.12 386.1 210.946 381.455" stroke="#AEEA00" stroke-width="2" stroke-linecap="round"/>
<path opacity="0.8" d="M248.048 262.767L249.574 264.823C249.755 265.067 249.72 265.43 249.497 265.636C249.274 265.841 248.947 265.81 248.767 265.566L247.361 263.671C246.634 262.692 245.427 262.352 244.312 262.711C238.99 264.423 236.196 263.01 232.732 256.441C229.709 249.951 229.356 248.483 227.087 240.175C233.396 244.666 250.852 246.054 247.522 259.455C247.236 260.604 247.375 261.86 248.048 262.767Z" fill="#47CB64"/>
<path d="M247.383 264.599C240.008 259.361 236.425 254.035 234.464 247.795" stroke="#AEEA00" stroke-width="2" stroke-linecap="round"/>
</svg>
